<svg width="252" height="215" viewBox="0 0 252 215" fill="none" xmlns="http://www.w3.org/2000/svg">
<path d="M62.0336 214.5L0.0668945 107.25L62.0336 0H185.967L247.934 107.25L185.967 214.5H62.0336ZM75.7377 190.667H172.263L220.227 107.25L172.263 23.8333H75.7377L27.4752 107.25L75.7377 190.667Z" fill="white"/>
<path d="M172 24.25L186 0L248 107.25H220L172 24.25Z" fill="#010214"/>
<path d="M88.5798 123.886C85.4586 123.886 82.701 123.333 80.307 122.227C77.9283 121.106 76.0722 119.568 74.7389 117.614C73.4055 115.644 72.7464 113.402 72.7616 110.886C72.7464 108.917 73.1328 107.098 73.9207 105.432C74.7086 103.75 75.7843 102.348 77.148 101.227C78.5267 100.091 80.0646 99.3712 81.7616 99.0682V98.7955C79.5343 98.2197 77.7616 96.9697 76.4434 95.0455C75.1252 93.1061 74.4737 90.9015 74.4889 88.4318C74.4737 86.0682 75.0722 83.9545 76.2843 82.0909C77.4964 80.2273 79.1631 78.7576 81.2843 77.6818C83.4207 76.6061 85.8525 76.0682 88.5798 76.0682C91.2767 76.0682 93.6858 76.6061 95.807 77.6818C97.9283 78.7576 99.5949 80.2273 100.807 82.0909C102.034 83.9545 102.656 86.0682 102.671 88.4318C102.656 90.9015 101.981 93.1061 100.648 95.0455C99.3298 96.9697 97.5798 98.2197 95.398 98.7955V99.0682C97.0798 99.3712 98.5949 100.091 99.9434 101.227C101.292 102.348 102.368 103.75 103.171 105.432C103.974 107.098 104.383 108.917 104.398 110.886C104.383 113.402 103.701 115.644 102.353 117.614C101.019 119.568 99.1631 121.106 96.7843 122.227C94.4207 123.333 91.6858 123.886 88.5798 123.886ZM88.5798 118.886C90.6858 118.886 92.504 118.545 94.0343 117.864C95.5646 117.182 96.7464 116.22 97.5798 114.977C98.4131 113.735 98.8374 112.28 98.8525 110.614C98.8374 108.856 98.3828 107.303 97.4889 105.955C96.5949 104.606 95.3752 103.545 93.8298 102.773C92.2995 102 90.5495 101.614 88.5798 101.614C86.5949 101.614 84.8222 102 83.2616 102.773C81.7161 103.545 80.4964 104.606 79.6025 105.955C78.7237 107.303 78.2919 108.856 78.307 110.614C78.2919 112.28 78.6934 113.735 79.5116 114.977C80.3449 116.22 81.5343 117.182 83.0798 117.864C84.6252 118.545 86.4586 118.886 88.5798 118.886ZM88.5798 96.7955C90.2464 96.7955 91.7237 96.4621 93.0116 95.7955C94.3146 95.1288 95.3374 94.197 96.0798 93C96.8222 91.803 97.201 90.4015 97.2161 88.7955C97.201 87.2197 96.8298 85.8485 96.1025 84.6818C95.3752 83.5 94.3677 82.5909 93.0798 81.9545C91.7919 81.303 90.2919 80.9773 88.5798 80.9773C86.8373 80.9773 85.3146 81.303 84.0116 81.9545C82.7086 82.5909 81.701 83.5 80.9889 84.6818C80.2767 85.8485 79.9283 87.2197 79.9434 88.7955C79.9283 90.4015 80.2843 91.803 81.0116 93C81.754 94.197 82.7767 95.1288 84.0798 95.7955C85.3828 96.4621 86.8828 96.7955 88.5798 96.7955ZM128.614 123.886C125.947 123.886 123.545 123.356 121.409 122.295C119.273 121.235 117.561 119.78 116.273 117.932C114.985 116.083 114.28 113.977 114.159 111.614H119.614C119.826 113.72 120.78 115.462 122.477 116.841C124.189 118.205 126.235 118.886 128.614 118.886C130.523 118.886 132.22 118.439 133.705 117.545C135.205 116.652 136.379 115.424 137.227 113.864C138.091 112.288 138.523 110.508 138.523 108.523C138.523 106.492 138.076 104.682 137.182 103.091C136.303 101.485 135.091 100.22 133.545 99.2955C132 98.3712 130.235 97.9015 128.25 97.8864C126.826 97.8712 125.364 98.0909 123.864 98.5455C122.364 98.9848 121.129 99.553 120.159 100.25L114.886 99.6136L117.705 76.7045H141.886V81.7045H122.432L120.795 95.4318H121.068C122.023 94.6742 123.22 94.0455 124.659 93.5455C126.098 93.0455 127.598 92.7955 129.159 92.7955C132.008 92.7955 134.545 93.4773 136.773 94.8409C139.015 96.1894 140.773 98.0379 142.045 100.386C143.333 102.735 143.977 105.417 143.977 108.432C143.977 111.402 143.311 114.053 141.977 116.386C140.659 118.705 138.841 120.538 136.523 121.886C134.205 123.22 131.568 123.886 128.614 123.886ZM177.693 114.523V112.068C177.693 110.371 178.041 108.818 178.738 107.409C179.451 105.985 180.481 104.848 181.829 104C183.193 103.136 184.844 102.705 186.784 102.705C188.754 102.705 190.405 103.136 191.738 104C193.072 104.848 194.079 105.985 194.761 107.409C195.443 108.818 195.784 110.371 195.784 112.068V114.523C195.784 116.22 195.435 117.78 194.738 119.205C194.057 120.614 193.041 121.75 191.693 122.614C190.36 123.462 188.723 123.886 186.784 123.886C184.814 123.886 183.155 123.462 181.807 122.614C180.458 121.75 179.435 120.614 178.738 119.205C178.041 117.78 177.693 116.22 177.693 114.523ZM182.329 112.068V114.523C182.329 115.932 182.663 117.197 183.329 118.318C183.996 119.424 185.147 119.977 186.784 119.977C188.375 119.977 189.496 119.424 190.147 118.318C190.814 117.197 191.147 115.932 191.147 114.523V112.068C191.147 110.659 190.829 109.402 190.193 108.295C189.557 107.174 188.42 106.614 186.784 106.614C185.193 106.614 184.049 107.174 183.352 108.295C182.67 109.402 182.329 110.659 182.329 112.068ZM154.511 87.8864V85.4318C154.511 83.7348 154.86 82.1818 155.557 80.7727C156.269 79.3485 157.299 78.2121 158.647 77.3636C160.011 76.5 161.663 76.0682 163.602 76.0682C165.572 76.0682 167.223 76.5 168.557 77.3636C169.89 78.2121 170.897 79.3485 171.579 80.7727C172.261 82.1818 172.602 83.7348 172.602 85.4318V87.8864C172.602 89.5833 172.254 91.1439 171.557 92.5682C170.875 93.9773 169.86 95.1136 168.511 95.9773C167.178 96.8258 165.541 97.25 163.602 97.25C161.632 97.25 159.973 96.8258 158.625 95.9773C157.276 95.1136 156.254 93.9773 155.557 92.5682C154.86 91.1439 154.511 89.5833 154.511 87.8864ZM159.147 85.4318V87.8864C159.147 89.2955 159.481 90.5606 160.147 91.6818C160.814 92.7879 161.966 93.3409 163.602 93.3409C165.193 93.3409 166.314 92.7879 166.966 91.6818C167.632 90.5606 167.966 89.2955 167.966 87.8864V85.4318C167.966 84.0227 167.647 82.7651 167.011 81.6591C166.375 80.5379 165.238 79.9773 163.602 79.9773C162.011 79.9773 160.867 80.5379 160.17 81.6591C159.488 82.7651 159.147 84.0227 159.147 85.4318ZM156.238 123.25L188.238 76.7045H193.42L161.42 123.25H156.238Z" fill="white"/>
</svg>
